<svg xmlns="http://www.w3.org/2000/svg" version="1.0" width="340.000000pt" height="47.000000pt" viewBox="0 0 340.000000 47.000000" preserveAspectRatio="xMidYMid meet" transform="matrix(1, 0, 0, 1, 0, 0)">

<g transform="translate(0.000000,47.000000) scale(0.100000,-0.100000)" fill="#dc1c0b" stroke="none">
<path d="M230 271 c-48 -4 -92 -12 -100 -19 -8 -7 -24 -19 -34 -26 -24 -16 -14 -34 31 -52 58 -25 273 -32 1188 -44 484 -6 945 -15 1025 -20 459 -32 724 -39 735 -20 3 6 39 10 79 10 86 0 124 20 112 58 -7 20 -14 22 -95 22 -48 0 -132 6 -187 14 -262 36 -431 50 -839 67 -264 11 -1779 19 -1915 10z m514 -53 c-14 -6 -56 -7 -125 0 l-104 9 125 1 c91 0 119 -2 104 -10z m1051 2 c7 -12 -108 -12 -200 0 -51 6 -40 7 67 9 75 0 129 -3 133 -9z m794 -16 c8 -7 -583 -2 -679 6 -53 4 74 6 290 3 212 -3 387 -7 389 -9z m-2208 -14 l114 -8 -147 2 c-107 1 -151 5 -160 14 -11 11 -5 12 33 7 25 -4 97 -10 160 -15z m2367 3 c-21 -2 -55 -2 -75 0 -21 2 -4 4 37 4 41 0 58 -2 38 -4z" fill="#dc1c0b"/>
</g>
</svg>