<svg xmlns="http://www.w3.org/2000/svg" version="1.0" width="697.000000pt" height="101.000000pt" viewBox="0 0 697.000000 101.000000" preserveAspectRatio="xMidYMid meet">
<metadata fill="#ad0808">
Created by potrace 1.16, written by Peter Selinger 2001-2019
</metadata>
<g transform="translate(0.000000,101.000000) scale(0.100000,-0.100000)" fill="#ad0808" stroke="none">
<path d="M5005 839 c-269 -28 -673 -107 -1158 -227 -64 -16 -119 -26 -122 -22 -2 3 7 22 21 42 38 54 42 98 9 136 -30 36 -77 52 -153 52 -121 0 -598 -83 -1697 -295 -700 -135 -868 -168 -980 -190 -144 -29 -524 -101 -580 -111 -48 -8 -85 -26 -40 -19 17 2 104 9 195 15 177 12 393 31 610 55 139 15 179 20 460 55 182 23 655 90 850 120 69 11 316 49 548 85 233 37 426 64 429 61 3 -3 -5 -10 -18 -15 -79 -30 -202 -93 -224 -115 -34 -34 -35 -94 -1 -133 23 -27 28 -28 108 -27 93 1 250 30 558 105 653 158 1040 232 1298 246 80 4 112 3 112 -5 0 -6 -33 -34 -72 -61 -83 -56 -112 -84 -127 -124 -16 -42 -13 -78 9 -114 55 -91 231 -117 780 -116 522 1 868 27 945 71 42 25 66 75 53 113 -19 55 -45 58 -278 30 -117 -14 -526 -31 -750 -31 -193 0 -479 15 -489 26 -6 6 6 17 94 79 67 47 105 105 105 161 0 134 -171 187 -495 153z" fill="#ad0808"/>
</g>
</svg>